<svg xmlns="http://www.w3.org/2000/svg" width="50" height="48.767" viewBox="0 0 50 48.767">
  <path id="github-icon" d="M25,0a25,25,0,0,0-7.9,48.721c1.25.229,1.706-.543,1.706-1.2,0-.6-.023-2.567-.035-4.654-6.952,1.511-8.421-2.948-8.421-2.948-1.138-2.887-2.776-3.656-2.776-3.656-2.272-1.55.172-1.52.172-1.52a5.247,5.247,0,0,1,3.832,2.576c2.231,3.821,5.853,2.716,7.275,2.075a5.345,5.345,0,0,1,1.587-3.339C14.888,35.422,9.05,33.276,9.05,23.7a9.679,9.679,0,0,1,2.571-6.709,9.005,9.005,0,0,1,.247-6.619s2.1-.671,6.876,2.563a23.666,23.666,0,0,1,12.515,0c4.77-3.238,6.87-2.563,6.87-2.563a8.968,8.968,0,0,1,.25,6.616,9.65,9.65,0,0,1,2.57,6.709c0,9.6-5.847,11.719-11.417,12.338a5.955,5.955,0,0,1,1.7,4.626c0,3.342-.034,6.036-.034,6.86,0,.665.455,1.443,1.721,1.2A25,25,0,0,0,25,0Z" fill="#fff"/>
</svg>
