<svg xmlns="http://www.w3.org/2000/svg" width="50" height="50" viewBox="0 0 50 50">
  <path id="linkedin-icon" d="M25,0A25,25,0,1,1,0,25,25.012,25.012,0,0,1,25,0ZM17.184,39.05V19.526H10.693V39.05Zm23.4,0v-11.2c0-6-3.2-8.787-7.472-8.787a6.446,6.446,0,0,0-5.849,3.223V19.526H20.775c.086,1.832,0,19.524,0,19.524h6.489v-10.9a4.436,4.436,0,0,1,.214-1.584,3.551,3.551,0,0,1,3.33-2.373c2.347,0,3.287,1.791,3.287,4.414V39.05Zm-26.6-28.938a3.383,3.383,0,1,0-.086,6.747h.042a3.384,3.384,0,1,0,.044-6.747Z" fill="#fff" fill-rule="evenodd"/>
</svg>
